<?xml version="1.0" encoding="utf-8"?>
<!-- Generator: Adobe Illustrator 20.1.0, SVG Export Plug-In . SVG Version: 6.00 Build 0)  -->
<svg version="1.1" id="_x31_25_icon" xmlns="http://www.w3.org/2000/svg" xmlns:xlink="http://www.w3.org/1999/xlink" x="0px"
	 y="0px" viewBox="0 0 349.5 389.2" style="enable-background:new 0 0 349.5 389.2;" xml:space="preserve">
<style type="text/css">
	.st0{fill:#FFFFFF;}
</style>
<g>
	<path class="st0" d="M39.5,108.5c-5.4,1.9-12.5,3.1-20.6,3.1c-4.8,0-10.4-0.3-15-1.3v116.2c0,1,0,2.1,0,3.1h5.4L39.5,108.5z"/>
	<path class="st0" d="M328,111.2c-16.7,0-30.3-3.7-39.3-7.3l-14.4,45.3c8.8-5.9,21.2-9.9,36.1-9.9c15.2,0,27.3,3.8,36.2,10.4v-40.9
		C340.9,110.3,334.6,111.2,328,111.2z"/>
	<path class="st0" d="M284.6,253.5c-30.5,0-56.5-18.4-56.5-41.8c0-15,9.6-28,24-28c10.7,0,17.8,7.7,17.8,17.3
		c0,9-5.6,16.9-14.4,20.9c3.4,7.1,13.3,13.3,26.5,13.3c29.2,0,42.4-28,42.4-52.6c0-20.6-14.2-28-29.7-28c-13.6,0-24.4,4.2-34.8,11
		l-13.8-5.9l27.7-88.2l6.5-4.8c15.5,6.7,34.2,9.9,50.3,9.9c4.2,0,12-0.2,15.9-0.6V0H3.7v91.4c21.8,0.7,43-7.5,55.1-22.4h22.9
		L41.9,229.6h32.4c-0.1,1.6-0.2,3.1-0.2,4.8c0,7.2,1.9,12.6,4.9,16.1H4.6C18.7,324.7,96.5,362.4,163.5,386l9.1,3.2l9.1-3.2
		c73.3-25.7,159.5-71,161.2-157C330.4,243.4,310.9,253.5,284.6,253.5z M147.8,162.2c29.7-14.4,52-26.5,52-51.5
		c0-16.7-11.9-26.9-30.3-26.9c-13.3,0-24,5.1-29.7,11c5.6,3.4,10.2,10.2,10.2,19.2c0,10.2-6.5,21.2-20.6,21.7
		c-13.3,0-22.1-8.8-22.1-22.9c0-23.4,26.3-47.8,66.7-47.8c39.6,0,60.8,23.2,60.8,48.6c0,35.3-28.2,49.2-59.1,58.5
		c-46.3,14.7-58.5,26.5-67.2,42.6l0.8,0.8c8.2-4.8,18.1-7.9,28.6-7.9c20.9,0,31.3,13.3,44.4,13.3c11.5,0,19-7.9,29.2-29.7l14.2,2.9
		c-11.5,43-27.1,59.1-50.7,59.1c-28.2,0-35.9-27.4-52-27.4c-2.5,0-4.8,0.2-7.9,1.4c0.8,2.5,1.4,5.4,1.4,7.7
		c0,11.3-7.1,18.4-16.9,18.4c-9.4,0-17.5-7.1-17.5-22.1C81.9,197,121.8,174.9,147.8,162.2z"/>
</g>
</svg>
