<?xml version="1.0" encoding="utf-8"?>
<!-- Generator: Adobe Illustrator 20.1.0, SVG Export Plug-In . SVG Version: 6.00 Build 0)  -->
<svg version="1.1" id="_x31_25_icon" xmlns="http://www.w3.org/2000/svg" xmlns:xlink="http://www.w3.org/1999/xlink" x="0px"
	 y="0px" viewBox="0 0 349.5 389.2" style="enable-background:new 0 0 349.5 389.2;" xml:space="preserve">
<style type="text/css">
	.st0{fill:#FFFFFF;}
</style>
<g>
	<path class="st0" d="M53.3,118.3c-4.7,1.7-10.9,2.7-18,2.7c-4.2,0-9.1-0.3-13.1-1.1v101.6c0,0.9,0,1.8,0,2.7h4.7L53.3,118.3z"/>
	<path class="st0" d="M305.6,120.7c-14.6,0-26.5-3.2-34.4-6.4l-12.6,39.6c7.7-5.2,18.5-8.7,31.6-8.7c13.3,0,23.9,3.3,31.7,9.1v-35.8
		C316.9,119.9,311.4,120.7,305.6,120.7z"/>
	<path class="st0" d="M267.7,245.1c-26.7,0-49.4-16.1-49.4-36.6c0-13.1,8.4-24.5,21-24.5c9.4,0,15.6,6.7,15.6,15.1
		c0,7.9-4.9,14.8-12.6,18.3c3,6.2,11.6,11.6,23.2,11.6c25.5,0,37.1-24.5,37.1-46c0-18-12.4-24.5-26-24.5c-11.9,0-21.3,3.7-30.4,9.6
		l-12.1-5.2l24.2-77.1l5.7-4.2c13.6,5.9,29.9,8.7,44,8.7c3.7,0,10.5-0.2,13.9-0.5V23.4H22v79.9c19.1,0.6,37.6-6.6,48.2-19.6h20
		L55.4,224.2h28.3c-0.1,1.4-0.2,2.7-0.2,4.2c0,6.3,1.7,11,4.3,14.1h-65c12.3,64.9,80.4,97.9,139,118.5l8,2.8l8-2.8
		c64.1-22.5,139.5-62.1,141-137.3C307.7,236.3,290.7,245.1,267.7,245.1z M148,165.3c26-12.6,45.5-23.2,45.5-45
		c0-14.6-10.4-23.5-26.5-23.5c-11.6,0-21,4.5-26,9.6c4.9,3,8.9,8.9,8.9,16.8c0,8.9-5.7,18.5-18,19c-11.6,0-19.3-7.7-19.3-20
		c0-20.5,23-41.8,58.3-41.8c34.6,0,53.2,20.3,53.2,42.5c0,30.9-24.7,43-51.7,51.2c-40.5,12.9-51.2,23.2-58.8,37.3l0.7,0.7
		c7.2-4.2,15.8-6.9,25-6.9c18.3,0,27.4,11.6,38.8,11.6c10.1,0,16.6-6.9,25.5-26l12.4,2.5c-10.1,37.6-23.7,51.7-44.3,51.7
		c-24.7,0-31.4-24-45.5-24c-2.2,0-4.2,0.2-6.9,1.2c0.7,2.2,1.2,4.7,1.2,6.7c0,9.9-6.2,16.1-14.8,16.1c-8.2,0-15.3-6.2-15.3-19.3
		C90.4,195.7,125.3,176.4,148,165.3z"/>
</g>
</svg>
